<svg width="24" height="24" viewBox="0 0 24 24" fill="none" xmlns="http://www.w3.org/2000/svg">
<path d="M7.4 10H11V6H9.45C9.23333 6 9.04167 6.0625 8.875 6.1875C8.70833 6.3125 8.58333 6.48333 8.5 6.7L7.4 10ZM13 10H16.6L15.5 6.7C15.4167 6.48333 15.2917 6.3125 15.125 6.1875C14.9583 6.0625 14.7667 6 14.55 6H13V10ZM9.8 16H14.2C14.4167 15.4 14.7792 14.9167 15.2875 14.55C15.7958 14.1833 16.3667 14 17 14C17.5 14 17.9667 14.1167 18.4 14.35C18.8333 14.5833 19.2 14.9 19.5 15.3C19.65 15.1167 19.7708 14.9125 19.8625 14.6875C19.9542 14.4625 20 14.2333 20 14C20 13.45 19.8042 12.9792 19.4125 12.5875C19.0208 12.1958 18.55 12 18 12H6C5.45 12 4.97917 12.1958 4.5875 12.5875C4.19583 12.9792 4 13.45 4 14C4 14.2333 4.04583 14.4625 4.1375 14.6875C4.22917 14.9125 4.35 15.1167 4.5 15.3C4.8 14.9 5.16667 14.5833 5.6 14.35C6.03333 14.1167 6.5 14 7 14C7.63333 14 8.20417 14.1833 8.7125 14.55C9.22083 14.9167 9.58333 15.4 9.8 16ZM7 18C7.28333 18 7.52083 17.9042 7.7125 17.7125C7.90417 17.5208 8 17.2833 8 17C8 16.7167 7.90417 16.4792 7.7125 16.2875C7.52083 16.0958 7.28333 16 7 16C6.71667 16 6.47917 16.0958 6.2875 16.2875C6.09583 16.4792 6 16.7167 6 17C6 17.2833 6.09583 17.5208 6.2875 17.7125C6.47917 17.9042 6.71667 18 7 18ZM17 18C17.2833 18 17.5208 17.9042 17.7125 17.7125C17.9042 17.5208 18 17.2833 18 17C18 16.7167 17.9042 16.4792 17.7125 16.2875C17.5208 16.0958 17.2833 16 17 16C16.7167 16 16.4792 16.0958 16.2875 16.2875C16.0958 16.4792 16 16.7167 16 17C16 17.2833 16.0958 17.5208 16.2875 17.7125C16.4792 17.9042 16.7167 18 17 18Z" fill="white"/>
<path d="M7 20C6.25 20 5.59583 19.7625 5.0375 19.2875C4.47917 18.8125 4.15 18.2 4.05 17.45C3.41667 17.1167 2.91667 16.6417 2.55 16.025C2.18333 15.4083 2 14.7333 2 14C2 13.1167 2.25417 12.3292 2.7625 11.6375C3.27083 10.9458 4.4 10.3667 5.25 10.1C5.06667 10.2833 5.53333 10.1 5.25 10.1C4.96667 10.1 5.43333 10.2833 5.25 10.1C5.06667 9.91667 5.25 10.3833 5.25 10.1C5.06667 10.2833 5.25 9.81667 5.25 10.1C4.96667 10.1 5.43333 9.91667 5.25 10.1C5.06667 9.91667 5.53333 10.1 5.25 10.1C5.25 9.81667 5.43333 10.2833 5.25 10.1C5.25 10.3833 5.43333 9.91667 5.25 10.1L6.6 6.05C6.8 5.43333 7.1625 4.9375 7.6875 4.5625C8.2125 4.1875 8.8 4 9.45 4H14.55C15.2 4 15.7875 4.1875 16.3125 4.5625C16.8375 4.9375 17.2 5.43333 17.4 6.05L18.75 10.1C19.7 10.2833 20.4792 10.7417 21.0875 11.475C21.6958 12.2083 22 13.05 22 14C22 14.7333 21.8167 15.4083 21.45 16.025C21.0833 16.6417 20.5833 17.1167 19.95 17.45C19.85 18.2 19.5208 18.8125 18.9625 19.2875C18.4042 19.7625 17.75 20 17 20C16.3667 20 15.7958 19.8167 15.2875 19.45C14.7792 19.0833 14.4167 18.6 14.2 18H9.8C9.58333 18.6 9.22083 19.0833 8.7125 19.45C8.20417 19.8167 7.63333 20 7 20ZM7.4 10H11V6H9.45C9.23333 6 9.04167 6.0625 8.875 6.1875C8.70833 6.3125 8.58333 6.48333 8.5 6.7L7.4 10ZM13 10H16.6L15.5 6.7C15.4167 6.48333 15.2917 6.3125 15.125 6.1875C14.9583 6.0625 14.7667 6 14.55 6H13V10ZM9.8 16H14.2C14.4167 15.4 14.7792 14.9167 15.2875 14.55C15.7958 14.1833 16.3667 14 17 14C17.5 14 17.9667 14.1167 18.4 14.35C18.8333 14.5833 19.2 14.9 19.5 15.3C19.65 15.1167 19.7708 14.9125 19.8625 14.6875C19.9542 14.4625 20 14.2333 20 14C20 13.45 19.8042 12.9792 19.4125 12.5875C19.0208 12.1958 18.55 12 18 12H6C5.45 12 4.97917 12.1958 4.5875 12.5875C4.19583 12.9792 4 13.45 4 14C4 14.2333 4.04583 14.4625 4.1375 14.6875C4.22917 14.9125 4.35 15.1167 4.5 15.3C4.8 14.9 5.16667 14.5833 5.6 14.35C6.03333 14.1167 6.5 14 7 14C7.63333 14 8.20417 14.1833 8.7125 14.55C9.22083 14.9167 9.58333 15.4 9.8 16ZM7 18C7.28333 18 7.52083 17.9042 7.7125 17.7125C7.90417 17.5208 8 17.2833 8 17C8 16.7167 7.90417 16.4792 7.7125 16.2875C7.52083 16.0958 7.28333 16 7 16C6.71667 16 6.47917 16.0958 6.2875 16.2875C6.09583 16.4792 6 16.7167 6 17C6 17.2833 6.09583 17.5208 6.2875 17.7125C6.47917 17.9042 6.71667 18 7 18ZM17 18C17.2833 18 17.5208 17.9042 17.7125 17.7125C17.9042 17.5208 18 17.2833 18 17C18 16.7167 17.9042 16.4792 17.7125 16.2875C17.5208 16.0958 17.2833 16 17 16C16.7167 16 16.4792 16.0958 16.2875 16.2875C16.0958 16.4792 16 16.7167 16 17C16 17.2833 16.0958 17.5208 16.2875 17.7125C16.4792 17.9042 16.7167 18 17 18Z" fill="#0000FF"/>
</svg>
